<svg width="14" height="14" viewBox="0 0 14 14" fill="none" xmlns="http://www.w3.org/2000/svg">
<path d="M7 2.5C7 2.89782 7.15804 3.27936 7.43934 3.56066C7.72064 3.84196 8.10218 4 8.5 4C8.89782 4 9.27936 3.84196 9.56066 3.56066C9.84196 3.27936 10 2.89782 10 2.5M7 2.5C7 2.10218 7.15804 1.72064 7.43934 1.43934C7.72064 1.15804 8.10218 1 8.5 1C8.89782 1 9.27936 1.15804 9.56066 1.43934C9.84196 1.72064 10 2.10218 10 2.5M7 2.5H1M10 2.5H13M2.5 7C2.5 7.39782 2.65804 7.77936 2.93934 8.06066C3.22064 8.34196 3.60218 8.5 4 8.5C4.39782 8.5 4.77936 8.34196 5.06066 8.06066C5.34196 7.77936 5.5 7.39782 5.5 7M2.5 7C2.5 6.60218 2.65804 6.22064 2.93934 5.93934C3.22064 5.65804 3.60218 5.5 4 5.5C4.39782 5.5 4.77936 5.65804 5.06066 5.93934C5.34196 6.22064 5.5 6.60218 5.5 7M2.5 7H1M5.5 7H13M9.25 11.5C9.25 11.8978 9.40804 12.2794 9.68934 12.5607C9.97064 12.842 10.3522 13 10.75 13C11.1478 13 11.5294 12.842 11.8107 12.5607C12.092 12.2794 12.25 11.8978 12.25 11.5M9.25 11.5C9.25 11.1022 9.40804 10.7206 9.68934 10.4393C9.97064 10.158 10.3522 10 10.75 10C11.1478 10 11.5294 10.158 11.8107 10.4393C12.092 10.7206 12.25 11.1022 12.25 11.5M9.25 11.5H1M12.25 11.5H13" stroke="black" stroke-width="1.5" stroke-linecap="round" stroke-linejoin="round"/>
</svg>
